<mxfile host="app.diagrams.net" modified="2024-05-04T08:23:26.013Z" agent="Mozilla/5.0 (Windows NT 10.0; Win64; x64) AppleWebKit/537.36 (KHTML, like Gecko) Chrome/124.0.0.0 Safari/537.36" etag="q9zjGrN40hP7iYo3s1V9" version="24.3.1" type="github">
  <diagram name="Page-1" id="e7e014a7-5840-1c2e-5031-d8a46d1fe8dd">
    <mxGraphModel dx="2298" dy="1133" grid="0" gridSize="10" guides="1" tooltips="1" connect="1" arrows="1" fold="1" page="1" pageScale="1" pageWidth="2336" pageHeight="1654" background="#ffffff" math="0" shadow="0">
      <root>
        <mxCell id="0" />
        <mxCell id="1" parent="0" />
        <mxCell id="IBuFn7-RkgrNKL1Sm6GZ-49" value="&lt;p style=&quot;margin:0px;margin-top:4px;text-align:center;&quot;&gt;&lt;i&gt;&amp;lt;&amp;lt;Interface&amp;gt;&amp;gt;&lt;/i&gt;&lt;br&gt;&lt;b&gt;Renderable&lt;/b&gt;&lt;/p&gt;&lt;hr size=&quot;1&quot; style=&quot;border-style:solid;&quot;&gt;&lt;p style=&quot;margin:0px;margin-left:4px;&quot;&gt;+ render()&lt;br&gt;&lt;/p&gt;" style="verticalAlign=top;align=left;overflow=fill;html=1;whiteSpace=wrap;" vertex="1" parent="1">
          <mxGeometry x="1965" y="369" width="190" height="70" as="geometry" />
        </mxCell>
        <mxCell id="IBuFn7-RkgrNKL1Sm6GZ-50" value="&lt;p style=&quot;margin:0px;margin-top:4px;text-align:center;&quot;&gt;&lt;i&gt;&amp;lt;&amp;lt;Interface&amp;gt;&amp;gt;&lt;/i&gt;&lt;br&gt;&lt;b&gt;Transformable&lt;/b&gt;&lt;/p&gt;&lt;hr size=&quot;1&quot; style=&quot;border-style:solid;&quot;&gt;&lt;p style=&quot;margin:0px;margin-left:4px;&quot;&gt;+ setPos(const vec2 &amp;amp;)&lt;br&gt;&lt;/p&gt;&lt;p style=&quot;margin:0px;margin-left:4px;&quot;&gt;+ getPos() : const vec2 &amp;amp;&lt;/p&gt;" style="verticalAlign=top;align=left;overflow=fill;html=1;whiteSpace=wrap;" vertex="1" parent="1">
          <mxGeometry x="1437" y="360" width="190" height="80" as="geometry" />
        </mxCell>
        <mxCell id="IBuFn7-RkgrNKL1Sm6GZ-51" value="Shape" style="swimlane;fontStyle=0;childLayout=stackLayout;horizontal=1;startSize=26;fillColor=none;horizontalStack=0;resizeParent=1;resizeParentMax=0;resizeLast=0;collapsible=1;marginBottom=0;whiteSpace=wrap;html=1;" vertex="1" parent="1">
          <mxGeometry x="1990" y="529" width="140" height="78" as="geometry">
            <mxRectangle x="1470" y="370" width="80" height="30" as="alternateBounds" />
          </mxGeometry>
        </mxCell>
        <mxCell id="IBuFn7-RkgrNKL1Sm6GZ-52" value="+ vao: GLuint" style="text;strokeColor=none;fillColor=none;align=left;verticalAlign=top;spacingLeft=4;spacingRight=4;overflow=hidden;rotatable=0;points=[[0,0.5],[1,0.5]];portConstraint=eastwest;whiteSpace=wrap;html=1;" vertex="1" parent="IBuFn7-RkgrNKL1Sm6GZ-51">
          <mxGeometry y="26" width="140" height="26" as="geometry" />
        </mxCell>
        <mxCell id="JmnoGaOjgDpgPYJ_L3wb-116" value="+ vbo: GLuint" style="text;strokeColor=none;fillColor=none;align=left;verticalAlign=top;spacingLeft=4;spacingRight=4;overflow=hidden;rotatable=0;points=[[0,0.5],[1,0.5]];portConstraint=eastwest;whiteSpace=wrap;html=1;" vertex="1" parent="IBuFn7-RkgrNKL1Sm6GZ-51">
          <mxGeometry y="52" width="140" height="26" as="geometry" />
        </mxCell>
        <mxCell id="IBuFn7-RkgrNKL1Sm6GZ-60" value="Widget" style="swimlane;fontStyle=1;align=center;verticalAlign=top;childLayout=stackLayout;horizontal=1;startSize=26;horizontalStack=0;resizeParent=1;resizeParentMax=0;resizeLast=0;collapsible=1;marginBottom=0;whiteSpace=wrap;html=1;" vertex="1" parent="1">
          <mxGeometry x="1439.5" y="1010" width="185" height="114" as="geometry" />
        </mxCell>
        <mxCell id="JmnoGaOjgDpgPYJ_L3wb-159" value="+ boxModel: BoxModel *" style="text;strokeColor=none;fillColor=none;align=left;verticalAlign=top;spacingLeft=4;spacingRight=4;overflow=hidden;rotatable=0;points=[[0,0.5],[1,0.5]];portConstraint=eastwest;whiteSpace=wrap;html=1;" vertex="1" parent="IBuFn7-RkgrNKL1Sm6GZ-60">
          <mxGeometry y="26" width="185" height="26" as="geometry" />
        </mxCell>
        <mxCell id="IBuFn7-RkgrNKL1Sm6GZ-61" value="+ transform: Transform *" style="text;strokeColor=none;fillColor=none;align=left;verticalAlign=top;spacingLeft=4;spacingRight=4;overflow=hidden;rotatable=0;points=[[0,0.5],[1,0.5]];portConstraint=eastwest;whiteSpace=wrap;html=1;" vertex="1" parent="IBuFn7-RkgrNKL1Sm6GZ-60">
          <mxGeometry y="52" width="185" height="26" as="geometry" />
        </mxCell>
        <mxCell id="JmnoGaOjgDpgPYJ_L3wb-177" value="" style="line;strokeWidth=1;rotatable=0;dashed=0;labelPosition=right;align=left;verticalAlign=middle;spacingTop=0;spacingLeft=6;points=[];portConstraint=eastwest;" vertex="1" parent="IBuFn7-RkgrNKL1Sm6GZ-60">
          <mxGeometry y="78" width="185" height="10" as="geometry" />
        </mxCell>
        <mxCell id="JmnoGaOjgDpgPYJ_L3wb-176" value="+&amp;nbsp;" style="text;strokeColor=none;fillColor=none;align=left;verticalAlign=top;spacingLeft=4;spacingRight=4;overflow=hidden;rotatable=0;points=[[0,0.5],[1,0.5]];portConstraint=eastwest;whiteSpace=wrap;html=1;" vertex="1" parent="IBuFn7-RkgrNKL1Sm6GZ-60">
          <mxGeometry y="88" width="185" height="26" as="geometry" />
        </mxCell>
        <mxCell id="IBuFn7-RkgrNKL1Sm6GZ-66" value="Extends" style="endArrow=block;endSize=16;endFill=0;html=1;rounded=0;entryX=0.5;entryY=1;entryDx=0;entryDy=0;exitX=0.5;exitY=0;exitDx=0;exitDy=0;" edge="1" parent="1" source="IBuFn7-RkgrNKL1Sm6GZ-51" target="IBuFn7-RkgrNKL1Sm6GZ-49">
          <mxGeometry width="160" relative="1" as="geometry">
            <mxPoint x="2005" y="529" as="sourcePoint" />
            <mxPoint x="2165" y="529" as="targetPoint" />
          </mxGeometry>
        </mxCell>
        <mxCell id="IBuFn7-RkgrNKL1Sm6GZ-68" value="Transform" style="swimlane;fontStyle=1;align=center;verticalAlign=top;childLayout=stackLayout;horizontal=1;startSize=26;horizontalStack=0;resizeParent=1;resizeParentMax=0;resizeLast=0;collapsible=1;marginBottom=0;whiteSpace=wrap;html=1;" vertex="1" parent="1">
          <mxGeometry x="1452" y="688.0000000000001" width="160" height="86" as="geometry" />
        </mxCell>
        <mxCell id="IBuFn7-RkgrNKL1Sm6GZ-69" value="+ pos: vec2" style="text;strokeColor=none;fillColor=none;align=left;verticalAlign=top;spacingLeft=4;spacingRight=4;overflow=hidden;rotatable=0;points=[[0,0.5],[1,0.5]];portConstraint=eastwest;whiteSpace=wrap;html=1;" vertex="1" parent="IBuFn7-RkgrNKL1Sm6GZ-68">
          <mxGeometry y="26" width="160" height="26" as="geometry" />
        </mxCell>
        <mxCell id="IBuFn7-RkgrNKL1Sm6GZ-70" value="" style="line;strokeWidth=1;fillColor=none;align=left;verticalAlign=middle;spacingTop=-1;spacingLeft=3;spacingRight=3;rotatable=0;labelPosition=right;points=[];portConstraint=eastwest;strokeColor=inherit;" vertex="1" parent="IBuFn7-RkgrNKL1Sm6GZ-68">
          <mxGeometry y="52" width="160" height="8" as="geometry" />
        </mxCell>
        <mxCell id="IBuFn7-RkgrNKL1Sm6GZ-71" value="+ method(type): type" style="text;strokeColor=none;fillColor=none;align=left;verticalAlign=top;spacingLeft=4;spacingRight=4;overflow=hidden;rotatable=0;points=[[0,0.5],[1,0.5]];portConstraint=eastwest;whiteSpace=wrap;html=1;" vertex="1" parent="IBuFn7-RkgrNKL1Sm6GZ-68">
          <mxGeometry y="60" width="160" height="26" as="geometry" />
        </mxCell>
        <mxCell id="IBuFn7-RkgrNKL1Sm6GZ-73" value="" style="endArrow=block;dashed=1;endFill=0;endSize=12;html=1;rounded=0;exitX=0.5;exitY=0;exitDx=0;exitDy=0;entryX=0.5;entryY=1;entryDx=0;entryDy=0;" edge="1" parent="1" source="IBuFn7-RkgrNKL1Sm6GZ-68" target="IBuFn7-RkgrNKL1Sm6GZ-50">
          <mxGeometry width="160" relative="1" as="geometry">
            <mxPoint x="1987" y="525.91" as="sourcePoint" />
            <mxPoint x="2147" y="525.91" as="targetPoint" />
          </mxGeometry>
        </mxCell>
        <mxCell id="IBuFn7-RkgrNKL1Sm6GZ-75" value="Extends" style="endArrow=block;endSize=16;endFill=0;html=1;rounded=0;entryX=0.5;entryY=1;entryDx=0;entryDy=0;" edge="1" parent="1" source="IBuFn7-RkgrNKL1Sm6GZ-60" target="IBuFn7-RkgrNKL1Sm6GZ-68">
          <mxGeometry width="160" relative="1" as="geometry">
            <mxPoint x="1357" y="785.9100000000001" as="sourcePoint" />
            <mxPoint x="1507" y="785.9100000000001" as="targetPoint" />
          </mxGeometry>
        </mxCell>
        <mxCell id="JmnoGaOjgDpgPYJ_L3wb-1" value="&lt;p style=&quot;margin:0px;margin-top:4px;text-align:center;&quot;&gt;&lt;i&gt;&amp;lt;&amp;lt;Interface&amp;gt;&amp;gt;&lt;/i&gt;&lt;br&gt;&lt;b&gt;PanelComponent&lt;/b&gt;&lt;/p&gt;&lt;hr size=&quot;1&quot; style=&quot;border-style:solid;&quot;&gt;&lt;p style=&quot;margin:0px;margin-left:4px;&quot;&gt;+ add(PanelComponent *, Alignment)&lt;br&gt;+ getWidth(): float&lt;/p&gt;&lt;p style=&quot;margin:0px;margin-left:4px;&quot;&gt;+ getHeight() : float&lt;/p&gt;&lt;p style=&quot;margin:0px;margin-left:4px;&quot;&gt;+ setDimension(float, float)&lt;/p&gt;" style="verticalAlign=top;align=left;overflow=fill;html=1;whiteSpace=wrap;" vertex="1" parent="1">
          <mxGeometry x="272" y="341.99999999999994" width="280" height="110" as="geometry" />
        </mxCell>
        <mxCell id="JmnoGaOjgDpgPYJ_L3wb-2" style="edgeStyle=orthogonalEdgeStyle;rounded=0;orthogonalLoop=1;jettySize=auto;html=1;exitX=0.5;exitY=1;exitDx=0;exitDy=0;" edge="1" parent="1" source="JmnoGaOjgDpgPYJ_L3wb-1" target="JmnoGaOjgDpgPYJ_L3wb-1">
          <mxGeometry relative="1" as="geometry" />
        </mxCell>
        <mxCell id="JmnoGaOjgDpgPYJ_L3wb-14" value="PanelItem" style="swimlane;fontStyle=1;align=center;verticalAlign=top;childLayout=stackLayout;horizontal=1;startSize=26;horizontalStack=0;resizeParent=1;resizeParentMax=0;resizeLast=0;collapsible=1;marginBottom=0;whiteSpace=wrap;html=1;" vertex="1" parent="1">
          <mxGeometry x="32" y="565.9100000000001" width="310" height="242" as="geometry" />
        </mxCell>
        <mxCell id="JmnoGaOjgDpgPYJ_L3wb-15" value="+ widget: Widget *" style="text;strokeColor=none;fillColor=none;align=left;verticalAlign=top;spacingLeft=4;spacingRight=4;overflow=hidden;rotatable=0;points=[[0,0.5],[1,0.5]];portConstraint=eastwest;whiteSpace=wrap;html=1;" vertex="1" parent="JmnoGaOjgDpgPYJ_L3wb-14">
          <mxGeometry y="26" width="310" height="26" as="geometry" />
        </mxCell>
        <mxCell id="JmnoGaOjgDpgPYJ_L3wb-16" value="" style="line;strokeWidth=1;fillColor=none;align=left;verticalAlign=middle;spacingTop=-1;spacingLeft=3;spacingRight=3;rotatable=0;labelPosition=right;points=[];portConstraint=eastwest;strokeColor=inherit;" vertex="1" parent="JmnoGaOjgDpgPYJ_L3wb-14">
          <mxGeometry y="52" width="310" height="8" as="geometry" />
        </mxCell>
        <mxCell id="JmnoGaOjgDpgPYJ_L3wb-17" value="+ render()" style="text;strokeColor=none;fillColor=none;align=left;verticalAlign=top;spacingLeft=4;spacingRight=4;overflow=hidden;rotatable=0;points=[[0,0.5],[1,0.5]];portConstraint=eastwest;whiteSpace=wrap;html=1;" vertex="1" parent="JmnoGaOjgDpgPYJ_L3wb-14">
          <mxGeometry y="60" width="310" height="26" as="geometry" />
        </mxCell>
        <mxCell id="JmnoGaOjgDpgPYJ_L3wb-33" value="+ add(PanelComponent *, Alignment)" style="text;strokeColor=none;fillColor=none;align=left;verticalAlign=top;spacingLeft=4;spacingRight=4;overflow=hidden;rotatable=0;points=[[0,0.5],[1,0.5]];portConstraint=eastwest;whiteSpace=wrap;html=1;" vertex="1" parent="JmnoGaOjgDpgPYJ_L3wb-14">
          <mxGeometry y="86" width="310" height="26" as="geometry" />
        </mxCell>
        <mxCell id="JmnoGaOjgDpgPYJ_L3wb-34" value="+ setPos(const vec2 &amp;amp;)" style="text;strokeColor=none;fillColor=none;align=left;verticalAlign=top;spacingLeft=4;spacingRight=4;overflow=hidden;rotatable=0;points=[[0,0.5],[1,0.5]];portConstraint=eastwest;whiteSpace=wrap;html=1;" vertex="1" parent="JmnoGaOjgDpgPYJ_L3wb-14">
          <mxGeometry y="112" width="310" height="26" as="geometry" />
        </mxCell>
        <mxCell id="JmnoGaOjgDpgPYJ_L3wb-35" value="+ getPos() : const vec2 &amp;amp;" style="text;strokeColor=none;fillColor=none;align=left;verticalAlign=top;spacingLeft=4;spacingRight=4;overflow=hidden;rotatable=0;points=[[0,0.5],[1,0.5]];portConstraint=eastwest;whiteSpace=wrap;html=1;" vertex="1" parent="JmnoGaOjgDpgPYJ_L3wb-14">
          <mxGeometry y="138" width="310" height="26" as="geometry" />
        </mxCell>
        <mxCell id="JmnoGaOjgDpgPYJ_L3wb-21" value="+ getWidth() : float" style="text;strokeColor=none;fillColor=none;align=left;verticalAlign=top;spacingLeft=4;spacingRight=4;overflow=hidden;rotatable=0;points=[[0,0.5],[1,0.5]];portConstraint=eastwest;whiteSpace=wrap;html=1;" vertex="1" parent="JmnoGaOjgDpgPYJ_L3wb-14">
          <mxGeometry y="164" width="310" height="26" as="geometry" />
        </mxCell>
        <mxCell id="JmnoGaOjgDpgPYJ_L3wb-24" value="+ getHeight() : float" style="text;strokeColor=none;fillColor=none;align=left;verticalAlign=top;spacingLeft=4;spacingRight=4;overflow=hidden;rotatable=0;points=[[0,0.5],[1,0.5]];portConstraint=eastwest;whiteSpace=wrap;html=1;" vertex="1" parent="JmnoGaOjgDpgPYJ_L3wb-14">
          <mxGeometry y="190" width="310" height="26" as="geometry" />
        </mxCell>
        <mxCell id="JmnoGaOjgDpgPYJ_L3wb-25" value="+ setDimension(float, float)" style="text;strokeColor=none;fillColor=none;align=left;verticalAlign=top;spacingLeft=4;spacingRight=4;overflow=hidden;rotatable=0;points=[[0,0.5],[1,0.5]];portConstraint=eastwest;whiteSpace=wrap;html=1;" vertex="1" parent="JmnoGaOjgDpgPYJ_L3wb-14">
          <mxGeometry y="216" width="310" height="26" as="geometry" />
        </mxCell>
        <mxCell id="JmnoGaOjgDpgPYJ_L3wb-27" value="Extends" style="endArrow=block;endSize=16;endFill=0;html=1;rounded=0;exitX=0.5;exitY=0;exitDx=0;exitDy=0;entryX=0.5;entryY=0;entryDx=0;entryDy=0;edgeStyle=orthogonalEdgeStyle;" edge="1" parent="1" source="JmnoGaOjgDpgPYJ_L3wb-1" target="IBuFn7-RkgrNKL1Sm6GZ-49">
          <mxGeometry width="160" relative="1" as="geometry">
            <mxPoint x="1656" y="335.90999999999997" as="sourcePoint" />
            <mxPoint x="2246" y="365.90999999999997" as="targetPoint" />
          </mxGeometry>
        </mxCell>
        <mxCell id="JmnoGaOjgDpgPYJ_L3wb-38" value="" style="endArrow=block;dashed=1;endFill=0;endSize=12;html=1;rounded=0;strokeColor=default;align=center;verticalAlign=middle;fontFamily=Helvetica;fontSize=11;fontColor=default;labelBackgroundColor=default;edgeStyle=orthogonalEdgeStyle;" edge="1" parent="1" target="JmnoGaOjgDpgPYJ_L3wb-1">
          <mxGeometry width="160" relative="1" as="geometry">
            <mxPoint x="162" y="563.9100000000001" as="sourcePoint" />
            <mxPoint x="642" y="593.9100000000001" as="targetPoint" />
            <Array as="points">
              <mxPoint x="162" y="503.9100000000001" />
              <mxPoint x="412" y="503.9100000000001" />
            </Array>
          </mxGeometry>
        </mxCell>
        <mxCell id="JmnoGaOjgDpgPYJ_L3wb-39" value="PanelContainer" style="swimlane;fontStyle=1;align=center;verticalAlign=top;childLayout=stackLayout;horizontal=1;startSize=26;horizontalStack=0;resizeParent=1;resizeParentMax=0;resizeLast=0;collapsible=1;marginBottom=0;whiteSpace=wrap;html=1;" vertex="1" parent="1">
          <mxGeometry x="452" y="565.9100000000001" width="310" height="398" as="geometry" />
        </mxCell>
        <mxCell id="JmnoGaOjgDpgPYJ_L3wb-40" value="+ bottom : vector&amp;lt;PanelComponent *&amp;gt;" style="text;strokeColor=none;fillColor=none;align=left;verticalAlign=top;spacingLeft=4;spacingRight=4;overflow=hidden;rotatable=0;points=[[0,0.5],[1,0.5]];portConstraint=eastwest;whiteSpace=wrap;html=1;" vertex="1" parent="JmnoGaOjgDpgPYJ_L3wb-39">
          <mxGeometry y="26" width="310" height="26" as="geometry" />
        </mxCell>
        <mxCell id="JmnoGaOjgDpgPYJ_L3wb-53" value="+ right : vector&amp;lt;PanelComponent *&amp;gt;" style="text;strokeColor=none;fillColor=none;align=left;verticalAlign=top;spacingLeft=4;spacingRight=4;overflow=hidden;rotatable=0;points=[[0,0.5],[1,0.5]];portConstraint=eastwest;whiteSpace=wrap;html=1;" vertex="1" parent="JmnoGaOjgDpgPYJ_L3wb-39">
          <mxGeometry y="52" width="310" height="26" as="geometry" />
        </mxCell>
        <mxCell id="JmnoGaOjgDpgPYJ_L3wb-54" value="+ top : vector&amp;lt;PanelComponent *&amp;gt;" style="text;strokeColor=none;fillColor=none;align=left;verticalAlign=top;spacingLeft=4;spacingRight=4;overflow=hidden;rotatable=0;points=[[0,0.5],[1,0.5]];portConstraint=eastwest;whiteSpace=wrap;html=1;" vertex="1" parent="JmnoGaOjgDpgPYJ_L3wb-39">
          <mxGeometry y="78" width="310" height="26" as="geometry" />
        </mxCell>
        <mxCell id="JmnoGaOjgDpgPYJ_L3wb-55" value="+ left : vector&amp;lt;PanelComponent *&amp;gt;" style="text;strokeColor=none;fillColor=none;align=left;verticalAlign=top;spacingLeft=4;spacingRight=4;overflow=hidden;rotatable=0;points=[[0,0.5],[1,0.5]];portConstraint=eastwest;whiteSpace=wrap;html=1;" vertex="1" parent="JmnoGaOjgDpgPYJ_L3wb-39">
          <mxGeometry y="104" width="310" height="26" as="geometry" />
        </mxCell>
        <mxCell id="JmnoGaOjgDpgPYJ_L3wb-74" value="+ transform : Transform *" style="text;strokeColor=none;fillColor=none;align=left;verticalAlign=top;spacingLeft=4;spacingRight=4;overflow=hidden;rotatable=0;points=[[0,0.5],[1,0.5]];portConstraint=eastwest;whiteSpace=wrap;html=1;" vertex="1" parent="JmnoGaOjgDpgPYJ_L3wb-39">
          <mxGeometry y="130" width="310" height="26" as="geometry" />
        </mxCell>
        <mxCell id="JmnoGaOjgDpgPYJ_L3wb-163" style="edgeStyle=orthogonalEdgeStyle;rounded=0;orthogonalLoop=1;jettySize=auto;html=1;exitX=1;exitY=0.5;exitDx=0;exitDy=0;entryX=1;entryY=0;entryDx=0;entryDy=0;strokeColor=default;align=center;verticalAlign=middle;fontFamily=Helvetica;fontSize=11;fontColor=default;labelBackgroundColor=default;endArrow=block;endFill=0;endSize=16;" edge="1" parent="JmnoGaOjgDpgPYJ_L3wb-39" source="JmnoGaOjgDpgPYJ_L3wb-72" target="JmnoGaOjgDpgPYJ_L3wb-39">
          <mxGeometry relative="1" as="geometry">
            <Array as="points">
              <mxPoint x="342" y="169" />
              <mxPoint x="342" />
            </Array>
          </mxGeometry>
        </mxCell>
        <mxCell id="JmnoGaOjgDpgPYJ_L3wb-72" value="+ current : PanelContainer *" style="text;strokeColor=none;fillColor=none;align=left;verticalAlign=top;spacingLeft=4;spacingRight=4;overflow=hidden;rotatable=0;points=[[0,0.5],[1,0.5]];portConstraint=eastwest;whiteSpace=wrap;html=1;" vertex="1" parent="JmnoGaOjgDpgPYJ_L3wb-39">
          <mxGeometry y="156" width="310" height="26" as="geometry" />
        </mxCell>
        <mxCell id="JmnoGaOjgDpgPYJ_L3wb-73" value="+ dimension : Dimension *" style="text;strokeColor=none;fillColor=none;align=left;verticalAlign=top;spacingLeft=4;spacingRight=4;overflow=hidden;rotatable=0;points=[[0,0.5],[1,0.5]];portConstraint=eastwest;whiteSpace=wrap;html=1;" vertex="1" parent="JmnoGaOjgDpgPYJ_L3wb-39">
          <mxGeometry y="182" width="310" height="26" as="geometry" />
        </mxCell>
        <mxCell id="JmnoGaOjgDpgPYJ_L3wb-41" value="" style="line;strokeWidth=1;fillColor=none;align=left;verticalAlign=middle;spacingTop=-1;spacingLeft=3;spacingRight=3;rotatable=0;labelPosition=right;points=[];portConstraint=eastwest;strokeColor=inherit;" vertex="1" parent="JmnoGaOjgDpgPYJ_L3wb-39">
          <mxGeometry y="208" width="310" height="8" as="geometry" />
        </mxCell>
        <mxCell id="JmnoGaOjgDpgPYJ_L3wb-42" value="+ render()" style="text;strokeColor=none;fillColor=none;align=left;verticalAlign=top;spacingLeft=4;spacingRight=4;overflow=hidden;rotatable=0;points=[[0,0.5],[1,0.5]];portConstraint=eastwest;whiteSpace=wrap;html=1;" vertex="1" parent="JmnoGaOjgDpgPYJ_L3wb-39">
          <mxGeometry y="216" width="310" height="26" as="geometry" />
        </mxCell>
        <mxCell id="JmnoGaOjgDpgPYJ_L3wb-43" value="+ add(PanelComponent *, Alignment)" style="text;strokeColor=none;fillColor=none;align=left;verticalAlign=top;spacingLeft=4;spacingRight=4;overflow=hidden;rotatable=0;points=[[0,0.5],[1,0.5]];portConstraint=eastwest;whiteSpace=wrap;html=1;" vertex="1" parent="JmnoGaOjgDpgPYJ_L3wb-39">
          <mxGeometry y="242" width="310" height="26" as="geometry" />
        </mxCell>
        <mxCell id="JmnoGaOjgDpgPYJ_L3wb-44" value="+ setPos(const vec2 &amp;amp;)" style="text;strokeColor=none;fillColor=none;align=left;verticalAlign=top;spacingLeft=4;spacingRight=4;overflow=hidden;rotatable=0;points=[[0,0.5],[1,0.5]];portConstraint=eastwest;whiteSpace=wrap;html=1;" vertex="1" parent="JmnoGaOjgDpgPYJ_L3wb-39">
          <mxGeometry y="268" width="310" height="26" as="geometry" />
        </mxCell>
        <mxCell id="JmnoGaOjgDpgPYJ_L3wb-45" value="+ getPos() : const vec2 &amp;amp;" style="text;strokeColor=none;fillColor=none;align=left;verticalAlign=top;spacingLeft=4;spacingRight=4;overflow=hidden;rotatable=0;points=[[0,0.5],[1,0.5]];portConstraint=eastwest;whiteSpace=wrap;html=1;" vertex="1" parent="JmnoGaOjgDpgPYJ_L3wb-39">
          <mxGeometry y="294" width="310" height="26" as="geometry" />
        </mxCell>
        <mxCell id="JmnoGaOjgDpgPYJ_L3wb-46" value="+ getWidth() : float" style="text;strokeColor=none;fillColor=none;align=left;verticalAlign=top;spacingLeft=4;spacingRight=4;overflow=hidden;rotatable=0;points=[[0,0.5],[1,0.5]];portConstraint=eastwest;whiteSpace=wrap;html=1;" vertex="1" parent="JmnoGaOjgDpgPYJ_L3wb-39">
          <mxGeometry y="320" width="310" height="26" as="geometry" />
        </mxCell>
        <mxCell id="JmnoGaOjgDpgPYJ_L3wb-47" value="+ getHeight() : float" style="text;strokeColor=none;fillColor=none;align=left;verticalAlign=top;spacingLeft=4;spacingRight=4;overflow=hidden;rotatable=0;points=[[0,0.5],[1,0.5]];portConstraint=eastwest;whiteSpace=wrap;html=1;" vertex="1" parent="JmnoGaOjgDpgPYJ_L3wb-39">
          <mxGeometry y="346" width="310" height="26" as="geometry" />
        </mxCell>
        <mxCell id="JmnoGaOjgDpgPYJ_L3wb-48" value="+ setDimension(float, float)" style="text;strokeColor=none;fillColor=none;align=left;verticalAlign=top;spacingLeft=4;spacingRight=4;overflow=hidden;rotatable=0;points=[[0,0.5],[1,0.5]];portConstraint=eastwest;whiteSpace=wrap;html=1;" vertex="1" parent="JmnoGaOjgDpgPYJ_L3wb-39">
          <mxGeometry y="372" width="310" height="26" as="geometry" />
        </mxCell>
        <mxCell id="JmnoGaOjgDpgPYJ_L3wb-51" value="" style="endArrow=block;dashed=1;endFill=0;endSize=12;html=1;rounded=0;strokeColor=default;align=center;verticalAlign=middle;fontFamily=Helvetica;fontSize=11;fontColor=default;labelBackgroundColor=default;edgeStyle=orthogonalEdgeStyle;" edge="1" parent="1" source="JmnoGaOjgDpgPYJ_L3wb-39" target="JmnoGaOjgDpgPYJ_L3wb-1">
          <mxGeometry width="160" relative="1" as="geometry">
            <mxPoint x="612" y="563.9100000000001" as="sourcePoint" />
            <mxPoint x="412" y="443.90999999999997" as="targetPoint" />
            <Array as="points">
              <mxPoint x="587" y="504" />
              <mxPoint x="412" y="504" />
            </Array>
          </mxGeometry>
        </mxCell>
        <mxCell id="JmnoGaOjgDpgPYJ_L3wb-86" value="Dimension" style="swimlane;fontStyle=1;align=center;verticalAlign=top;childLayout=stackLayout;horizontal=1;startSize=26;horizontalStack=0;resizeParent=1;resizeParentMax=0;resizeLast=0;collapsible=1;marginBottom=0;whiteSpace=wrap;html=1;" vertex="1" parent="1">
          <mxGeometry x="970" y="741" width="162" height="164" as="geometry" />
        </mxCell>
        <mxCell id="JmnoGaOjgDpgPYJ_L3wb-87" value="+ width : float" style="text;strokeColor=none;fillColor=none;align=left;verticalAlign=top;spacingLeft=4;spacingRight=4;overflow=hidden;rotatable=0;points=[[0,0.5],[1,0.5]];portConstraint=eastwest;whiteSpace=wrap;html=1;" vertex="1" parent="JmnoGaOjgDpgPYJ_L3wb-86">
          <mxGeometry y="26" width="162" height="26" as="geometry" />
        </mxCell>
        <mxCell id="JmnoGaOjgDpgPYJ_L3wb-102" value="+ height : float" style="text;strokeColor=none;fillColor=none;align=left;verticalAlign=top;spacingLeft=4;spacingRight=4;overflow=hidden;rotatable=0;points=[[0,0.5],[1,0.5]];portConstraint=eastwest;whiteSpace=wrap;html=1;" vertex="1" parent="JmnoGaOjgDpgPYJ_L3wb-86">
          <mxGeometry y="52" width="162" height="26" as="geometry" />
        </mxCell>
        <mxCell id="JmnoGaOjgDpgPYJ_L3wb-94" value="" style="line;strokeWidth=1;fillColor=none;align=left;verticalAlign=middle;spacingTop=-1;spacingLeft=3;spacingRight=3;rotatable=0;labelPosition=right;points=[];portConstraint=eastwest;strokeColor=inherit;" vertex="1" parent="JmnoGaOjgDpgPYJ_L3wb-86">
          <mxGeometry y="78" width="162" height="8" as="geometry" />
        </mxCell>
        <mxCell id="JmnoGaOjgDpgPYJ_L3wb-95" value="+ getWidth() : float" style="text;strokeColor=none;fillColor=none;align=left;verticalAlign=top;spacingLeft=4;spacingRight=4;overflow=hidden;rotatable=0;points=[[0,0.5],[1,0.5]];portConstraint=eastwest;whiteSpace=wrap;html=1;" vertex="1" parent="JmnoGaOjgDpgPYJ_L3wb-86">
          <mxGeometry y="86" width="162" height="26" as="geometry" />
        </mxCell>
        <mxCell id="JmnoGaOjgDpgPYJ_L3wb-96" value="+ getHeight() : float" style="text;strokeColor=none;fillColor=none;align=left;verticalAlign=top;spacingLeft=4;spacingRight=4;overflow=hidden;rotatable=0;points=[[0,0.5],[1,0.5]];portConstraint=eastwest;whiteSpace=wrap;html=1;" vertex="1" parent="JmnoGaOjgDpgPYJ_L3wb-86">
          <mxGeometry y="112" width="162" height="26" as="geometry" />
        </mxCell>
        <mxCell id="JmnoGaOjgDpgPYJ_L3wb-97" value="+ setDimension(float, float)" style="text;strokeColor=none;fillColor=none;align=left;verticalAlign=top;spacingLeft=4;spacingRight=4;overflow=hidden;rotatable=0;points=[[0,0.5],[1,0.5]];portConstraint=eastwest;whiteSpace=wrap;html=1;" vertex="1" parent="JmnoGaOjgDpgPYJ_L3wb-86">
          <mxGeometry y="138" width="162" height="26" as="geometry" />
        </mxCell>
        <mxCell id="JmnoGaOjgDpgPYJ_L3wb-103" style="rounded=0;orthogonalLoop=1;jettySize=auto;html=1;exitX=1;exitY=0.5;exitDx=0;exitDy=0;strokeColor=default;align=center;verticalAlign=middle;fontFamily=Helvetica;fontSize=11;fontColor=default;labelBackgroundColor=default;endArrow=block;endFill=0;endSize=16;entryX=-0.008;entryY=0.11;entryDx=0;entryDy=0;entryPerimeter=0;" edge="1" parent="1" source="JmnoGaOjgDpgPYJ_L3wb-73" target="JmnoGaOjgDpgPYJ_L3wb-86">
          <mxGeometry relative="1" as="geometry" />
        </mxCell>
        <mxCell id="JmnoGaOjgDpgPYJ_L3wb-106" value="Extends" style="endArrow=block;endSize=16;endFill=0;html=1;rounded=0;strokeColor=default;align=center;verticalAlign=middle;fontFamily=Helvetica;fontSize=11;fontColor=default;labelBackgroundColor=default;exitX=1;exitY=0.5;exitDx=0;exitDy=0;entryX=0;entryY=0.5;entryDx=0;entryDy=0;" edge="1" parent="1" source="JmnoGaOjgDpgPYJ_L3wb-1" target="IBuFn7-RkgrNKL1Sm6GZ-50">
          <mxGeometry width="160" relative="1" as="geometry">
            <mxPoint x="789" y="454" as="sourcePoint" />
            <mxPoint x="1233" y="400" as="targetPoint" />
          </mxGeometry>
        </mxCell>
        <mxCell id="JmnoGaOjgDpgPYJ_L3wb-107" style="rounded=0;orthogonalLoop=1;jettySize=auto;html=1;exitX=1;exitY=0.5;exitDx=0;exitDy=0;entryX=0;entryY=0.25;entryDx=0;entryDy=0;strokeColor=default;align=center;verticalAlign=middle;fontFamily=Helvetica;fontSize=11;fontColor=default;labelBackgroundColor=default;endArrow=block;endFill=0;endSize=16;" edge="1" parent="1" source="JmnoGaOjgDpgPYJ_L3wb-74" target="IBuFn7-RkgrNKL1Sm6GZ-68">
          <mxGeometry relative="1" as="geometry">
            <mxPoint x="1248" y="685" as="targetPoint" />
          </mxGeometry>
        </mxCell>
        <mxCell id="JmnoGaOjgDpgPYJ_L3wb-110" value="Rectangle" style="swimlane;fontStyle=1;align=center;verticalAlign=top;childLayout=stackLayout;horizontal=1;startSize=26;horizontalStack=0;resizeParent=1;resizeParentMax=0;resizeLast=0;collapsible=1;marginBottom=0;whiteSpace=wrap;html=1;" vertex="1" parent="1">
          <mxGeometry x="1812" y="708" width="185" height="60" as="geometry" />
        </mxCell>
        <mxCell id="JmnoGaOjgDpgPYJ_L3wb-114" value="" style="line;strokeWidth=1;fillColor=none;align=left;verticalAlign=middle;spacingTop=-1;spacingLeft=3;spacingRight=3;rotatable=0;labelPosition=right;points=[];portConstraint=eastwest;strokeColor=inherit;" vertex="1" parent="JmnoGaOjgDpgPYJ_L3wb-110">
          <mxGeometry y="26" width="185" height="8" as="geometry" />
        </mxCell>
        <mxCell id="JmnoGaOjgDpgPYJ_L3wb-115" value="+ render()" style="text;strokeColor=none;fillColor=none;align=left;verticalAlign=top;spacingLeft=4;spacingRight=4;overflow=hidden;rotatable=0;points=[[0,0.5],[1,0.5]];portConstraint=eastwest;whiteSpace=wrap;html=1;" vertex="1" parent="JmnoGaOjgDpgPYJ_L3wb-110">
          <mxGeometry y="34" width="185" height="26" as="geometry" />
        </mxCell>
        <mxCell id="JmnoGaOjgDpgPYJ_L3wb-118" value="Extends" style="endArrow=block;endSize=16;endFill=0;html=1;rounded=0;strokeColor=default;align=center;verticalAlign=middle;fontFamily=Helvetica;fontSize=11;fontColor=default;labelBackgroundColor=default;edgeStyle=orthogonalEdgeStyle;exitX=0.5;exitY=0;exitDx=0;exitDy=0;" edge="1" parent="1" source="JmnoGaOjgDpgPYJ_L3wb-110" target="JmnoGaOjgDpgPYJ_L3wb-116">
          <mxGeometry width="160" relative="1" as="geometry">
            <mxPoint x="1906" y="676" as="sourcePoint" />
            <mxPoint x="2066" y="676" as="targetPoint" />
            <Array as="points">
              <mxPoint x="1933" y="658" />
              <mxPoint x="2060" y="658" />
            </Array>
          </mxGeometry>
        </mxCell>
        <mxCell id="JmnoGaOjgDpgPYJ_L3wb-119" value="Circle" style="swimlane;fontStyle=1;align=center;verticalAlign=top;childLayout=stackLayout;horizontal=1;startSize=26;horizontalStack=0;resizeParent=1;resizeParentMax=0;resizeLast=0;collapsible=1;marginBottom=0;whiteSpace=wrap;html=1;" vertex="1" parent="1">
          <mxGeometry x="2080" y="708" width="185" height="60" as="geometry" />
        </mxCell>
        <mxCell id="JmnoGaOjgDpgPYJ_L3wb-120" value="" style="line;strokeWidth=1;fillColor=none;align=left;verticalAlign=middle;spacingTop=-1;spacingLeft=3;spacingRight=3;rotatable=0;labelPosition=right;points=[];portConstraint=eastwest;strokeColor=inherit;" vertex="1" parent="JmnoGaOjgDpgPYJ_L3wb-119">
          <mxGeometry y="26" width="185" height="8" as="geometry" />
        </mxCell>
        <mxCell id="JmnoGaOjgDpgPYJ_L3wb-121" value="+ render()" style="text;strokeColor=none;fillColor=none;align=left;verticalAlign=top;spacingLeft=4;spacingRight=4;overflow=hidden;rotatable=0;points=[[0,0.5],[1,0.5]];portConstraint=eastwest;whiteSpace=wrap;html=1;" vertex="1" parent="JmnoGaOjgDpgPYJ_L3wb-119">
          <mxGeometry y="34" width="185" height="26" as="geometry" />
        </mxCell>
        <mxCell id="JmnoGaOjgDpgPYJ_L3wb-122" value="Extends" style="endArrow=block;endSize=16;endFill=0;html=1;rounded=0;strokeColor=default;align=center;verticalAlign=middle;fontFamily=Helvetica;fontSize=11;fontColor=default;labelBackgroundColor=default;edgeStyle=orthogonalEdgeStyle;exitX=0.5;exitY=0;exitDx=0;exitDy=0;" edge="1" parent="1" source="JmnoGaOjgDpgPYJ_L3wb-119" target="JmnoGaOjgDpgPYJ_L3wb-116">
          <mxGeometry width="160" relative="1" as="geometry">
            <mxPoint x="2024" y="724" as="sourcePoint" />
            <mxPoint x="2184" y="724" as="targetPoint" />
            <Array as="points">
              <mxPoint x="2172" y="708" />
              <mxPoint x="2172" y="708" />
              <mxPoint x="2172" y="658" />
              <mxPoint x="2060" y="658" />
            </Array>
          </mxGeometry>
        </mxCell>
        <mxCell id="JmnoGaOjgDpgPYJ_L3wb-123" value="RectangularWidget" style="swimlane;fontStyle=1;align=center;verticalAlign=top;childLayout=stackLayout;horizontal=1;startSize=26;horizontalStack=0;resizeParent=1;resizeParentMax=0;resizeLast=0;collapsible=1;marginBottom=0;whiteSpace=wrap;html=1;" vertex="1" parent="1">
          <mxGeometry x="1812" y="1144" width="185" height="25" as="geometry" />
        </mxCell>
        <mxCell id="JmnoGaOjgDpgPYJ_L3wb-129" value="Extends" style="endArrow=block;endSize=16;endFill=0;html=1;rounded=0;strokeColor=default;align=center;verticalAlign=middle;fontFamily=Helvetica;fontSize=11;fontColor=default;labelBackgroundColor=default;" edge="1" parent="1" source="JmnoGaOjgDpgPYJ_L3wb-123" target="JmnoGaOjgDpgPYJ_L3wb-115">
          <mxGeometry width="160" relative="1" as="geometry">
            <mxPoint x="1747" y="874" as="sourcePoint" />
            <mxPoint x="1907" y="874" as="targetPoint" />
          </mxGeometry>
        </mxCell>
        <mxCell id="JmnoGaOjgDpgPYJ_L3wb-130" value="CircularWidget" style="swimlane;fontStyle=1;align=center;verticalAlign=top;childLayout=stackLayout;horizontal=1;startSize=26;horizontalStack=0;resizeParent=1;resizeParentMax=0;resizeLast=0;collapsible=1;marginBottom=0;whiteSpace=wrap;html=1;rounded=0;" vertex="1" parent="1">
          <mxGeometry x="2077.5" y="1141.5" width="190" height="30" as="geometry" />
        </mxCell>
        <mxCell id="JmnoGaOjgDpgPYJ_L3wb-136" value="Extends" style="endArrow=block;endSize=16;endFill=0;html=1;rounded=0;strokeColor=default;align=center;verticalAlign=middle;fontFamily=Helvetica;fontSize=11;fontColor=default;labelBackgroundColor=default;" edge="1" parent="1" source="JmnoGaOjgDpgPYJ_L3wb-130" target="JmnoGaOjgDpgPYJ_L3wb-121">
          <mxGeometry width="160" relative="1" as="geometry">
            <mxPoint x="2184" y="1141" as="sourcePoint" />
            <mxPoint x="2080" y="864" as="targetPoint" />
          </mxGeometry>
        </mxCell>
        <mxCell id="JmnoGaOjgDpgPYJ_L3wb-138" value="BoxModel" style="swimlane;fontStyle=1;align=center;verticalAlign=top;childLayout=stackLayout;horizontal=1;startSize=26;horizontalStack=0;resizeParent=1;resizeParentMax=0;resizeLast=0;collapsible=1;marginBottom=0;whiteSpace=wrap;html=1;" vertex="1" parent="1">
          <mxGeometry x="1022" y="1033" width="310" height="190" as="geometry">
            <mxRectangle x="1140" y="1033" width="88" height="26" as="alternateBounds" />
          </mxGeometry>
        </mxCell>
        <mxCell id="JmnoGaOjgDpgPYJ_L3wb-139" value="+ content: Dimension" style="text;strokeColor=none;fillColor=none;align=left;verticalAlign=top;spacingLeft=4;spacingRight=4;overflow=hidden;rotatable=0;points=[[0,0.5],[1,0.5]];portConstraint=eastwest;whiteSpace=wrap;html=1;" vertex="1" parent="JmnoGaOjgDpgPYJ_L3wb-138">
          <mxGeometry y="26" width="310" height="26" as="geometry" />
        </mxCell>
        <mxCell id="JmnoGaOjgDpgPYJ_L3wb-154" value="+ padding: Dimension" style="text;strokeColor=none;fillColor=none;align=left;verticalAlign=top;spacingLeft=4;spacingRight=4;overflow=hidden;rotatable=0;points=[[0,0.5],[1,0.5]];portConstraint=eastwest;whiteSpace=wrap;html=1;" vertex="1" parent="JmnoGaOjgDpgPYJ_L3wb-138">
          <mxGeometry y="52" width="310" height="26" as="geometry" />
        </mxCell>
        <mxCell id="JmnoGaOjgDpgPYJ_L3wb-155" value="+ border: Dimension" style="text;strokeColor=none;fillColor=none;align=left;verticalAlign=top;spacingLeft=4;spacingRight=4;overflow=hidden;rotatable=0;points=[[0,0.5],[1,0.5]];portConstraint=eastwest;whiteSpace=wrap;html=1;" vertex="1" parent="JmnoGaOjgDpgPYJ_L3wb-138">
          <mxGeometry y="78" width="310" height="26" as="geometry" />
        </mxCell>
        <mxCell id="JmnoGaOjgDpgPYJ_L3wb-156" value="+ margin: Dimension" style="text;strokeColor=none;fillColor=none;align=left;verticalAlign=top;spacingLeft=4;spacingRight=4;overflow=hidden;rotatable=0;points=[[0,0.5],[1,0.5]];portConstraint=eastwest;whiteSpace=wrap;html=1;" vertex="1" parent="JmnoGaOjgDpgPYJ_L3wb-138">
          <mxGeometry y="104" width="310" height="26" as="geometry" />
        </mxCell>
        <mxCell id="JmnoGaOjgDpgPYJ_L3wb-157" value="+ boxDimension: vec2" style="text;strokeColor=none;fillColor=none;align=left;verticalAlign=top;spacingLeft=4;spacingRight=4;overflow=hidden;rotatable=0;points=[[0,0.5],[1,0.5]];portConstraint=eastwest;whiteSpace=wrap;html=1;" vertex="1" parent="JmnoGaOjgDpgPYJ_L3wb-138">
          <mxGeometry y="130" width="310" height="26" as="geometry" />
        </mxCell>
        <mxCell id="JmnoGaOjgDpgPYJ_L3wb-146" value="" style="line;strokeWidth=1;fillColor=none;align=left;verticalAlign=middle;spacingTop=-1;spacingLeft=3;spacingRight=3;rotatable=0;labelPosition=right;points=[];portConstraint=eastwest;strokeColor=inherit;" vertex="1" parent="JmnoGaOjgDpgPYJ_L3wb-138">
          <mxGeometry y="156" width="310" height="8" as="geometry" />
        </mxCell>
        <mxCell id="JmnoGaOjgDpgPYJ_L3wb-147" value="+ render()" style="text;strokeColor=none;fillColor=none;align=left;verticalAlign=top;spacingLeft=4;spacingRight=4;overflow=hidden;rotatable=0;points=[[0,0.5],[1,0.5]];portConstraint=eastwest;whiteSpace=wrap;html=1;" vertex="1" parent="JmnoGaOjgDpgPYJ_L3wb-138">
          <mxGeometry y="164" width="310" height="26" as="geometry" />
        </mxCell>
        <mxCell id="JmnoGaOjgDpgPYJ_L3wb-161" style="rounded=0;orthogonalLoop=1;jettySize=auto;html=1;exitX=0;exitY=0.5;exitDx=0;exitDy=0;entryX=1;entryY=0.084;entryDx=0;entryDy=0;strokeColor=default;align=center;verticalAlign=middle;fontFamily=Helvetica;fontSize=11;fontColor=default;labelBackgroundColor=default;endArrow=block;endFill=0;endSize=16;entryPerimeter=0;" edge="1" parent="1" source="JmnoGaOjgDpgPYJ_L3wb-159" target="JmnoGaOjgDpgPYJ_L3wb-138">
          <mxGeometry relative="1" as="geometry" />
        </mxCell>
        <mxCell id="JmnoGaOjgDpgPYJ_L3wb-162" style="edgeStyle=orthogonalEdgeStyle;rounded=0;orthogonalLoop=1;jettySize=auto;html=1;entryX=1.001;entryY=0.094;entryDx=0;entryDy=0;entryPerimeter=0;strokeColor=default;align=center;verticalAlign=middle;fontFamily=Helvetica;fontSize=11;fontColor=default;labelBackgroundColor=default;endArrow=block;endFill=0;endSize=16;" edge="1" parent="1" source="JmnoGaOjgDpgPYJ_L3wb-138" target="JmnoGaOjgDpgPYJ_L3wb-86">
          <mxGeometry relative="1" as="geometry" />
        </mxCell>
        <mxCell id="JmnoGaOjgDpgPYJ_L3wb-164" value="Extends" style="endArrow=block;endSize=16;endFill=0;html=1;rounded=0;strokeColor=default;align=center;verticalAlign=middle;fontFamily=Helvetica;fontSize=11;fontColor=default;labelBackgroundColor=default;edgeStyle=orthogonalEdgeStyle;entryX=1;entryY=0.25;entryDx=0;entryDy=0;exitX=0.5;exitY=0;exitDx=0;exitDy=0;" edge="1" parent="1" source="JmnoGaOjgDpgPYJ_L3wb-123" target="IBuFn7-RkgrNKL1Sm6GZ-60">
          <mxGeometry width="160" relative="1" as="geometry">
            <mxPoint x="1708" y="973" as="sourcePoint" />
            <mxPoint x="1868" y="973" as="targetPoint" />
          </mxGeometry>
        </mxCell>
        <mxCell id="JmnoGaOjgDpgPYJ_L3wb-169" value="Extends" style="endArrow=block;endSize=16;endFill=0;html=1;rounded=0;entryX=1;entryY=0.25;entryDx=0;entryDy=0;exitX=0.5;exitY=0;exitDx=0;exitDy=0;edgeStyle=orthogonalEdgeStyle;" edge="1" parent="1" source="JmnoGaOjgDpgPYJ_L3wb-130" target="IBuFn7-RkgrNKL1Sm6GZ-60">
          <mxGeometry x="-0.4127" width="160" relative="1" as="geometry">
            <mxPoint x="2185" y="1033" as="sourcePoint" />
            <mxPoint x="1988" y="1055" as="targetPoint" />
            <mxPoint as="offset" />
          </mxGeometry>
        </mxCell>
      </root>
    </mxGraphModel>
  </diagram>
</mxfile>
